# xmcd CD database file
#
# Track frame offsets:
#	183
#	15025
#	27465
#	37480
#	76853
#	90728
#	103143
#	113795
#	128040
#	141268
#	153883
#	166763
#	181773
#	193060
#	216045
#	229323
#	242030
#	253850
#	265738
#	274620
#	285430
#	301058
#	312673
#	323098
#	336388
#
# Disc length: 4615 seconds
#
# Revision: 6
# Processed by: cddbd v1.5.2PL0 Copyright (c) Steve Scherf et al.
# Submitted via: CDex 1.51
#
DISCID=5b120519
DTITLE=Various Artist - 25 Blues 'n' Soul Greats - volume 3
DYEAR=1900
DGENRE=Blues
TTITLE0=Muddy Waters - Baby Please Dont't Go
TTITLE1=John Lee Hooker - Hobo Blues
TTITLE2=Howlin' Wolf - Down In The Bottom
TTITLE3=Billie Holiday - Fine And Mellow
TTITLE4=Sonny Boy Williamson - Dont't Lose Your Eye
TTITLE5=Little Walter - Joke
TTITLE6=Leadbelly - Blue Tail Fly
TTITLE7=Ray Charles - Walkin' And Talkin'
TTITLE8=John Lee Hooker - Baby Lee
TTITLE9=Muddy Waters - Trainfare Blues
TTITLE10=Howlin' Wolf - Back Door Man
TTITLE11=Elmore James - It Hurts Me Too
TTITLE12=Billie Holiday - Fooling Myself
TTITLE13=B. B. King - Everyday I Have The Blues
TTITLE14=Little Walter - Mean Old World
TTITLE15=John Lee Hooker - Trouble Blues
TTITLE16=Howlin' Wolf - Howlin' For My Baby
TTITLE17=Jimmy Reed - Where Can You Be
TTITLE18=Sonny Boy Williamson - One Way Out
TTITLE19=Ray Charles - Hey Now
TTITLE20=Billie Holiday - Easy To Remember
TTITLE21=Muddy Waters - Settin' Here Drinkin'
TTITLE22=John Lee Hooker - Old Time Shimmy
TTITLE23=Howlin' Wolf - Tell Me
TTITLE24=Leadbelly - How Long
EXTD=
EXTT0=
EXTT1=
EXTT2=
EXTT3=
EXTT4=
EXTT5=
EXTT6=
EXTT7=
EXTT8=
EXTT9=
EXTT10=
EXTT11=
EXTT12=
EXTT13=
EXTT14=
EXTT15=
EXTT16=
EXTT17=
EXTT18=
EXTT19=
EXTT20=
EXTT21=
EXTT22=
EXTT23=
EXTT24=
PLAYORDER=
